<svg version="1.1" id="Layer_1" xmlns="http://www.w3.org/2000/svg" xmlns:xlink="http://www.w3.org/1999/xlink" x="0px" y="0px"
	 width="100%" viewBox="0 0 528 576" enable-background="new 0 0 528 576" xml:space="preserve">
<path fill="#000000" opacity="1.000000" stroke="none" 
	d="
M250.910187,77.877090 
	C259.855347,70.437523 269.093353,64.309334 280.490082,62.296982 
	C281.308868,62.152409 282.115204,61.851608 282.935730,61.815899 
	C289.701813,61.521416 296.701996,61.339321 301.007812,67.709122 
	C305.140137,73.822258 302.238098,79.874924 299.336853,85.604469 
	C297.930420,88.381989 296.239227,91.015320 294.669006,93.727631 
	C296.651520,95.532433 298.346252,94.379356 300.024933,93.974182 
	C315.114227,90.332062 330.238251,88.987335 345.363770,93.654984 
	C349.808167,95.026482 354.278748,96.492760 356.371643,101.419769 
	C358.912384,107.401146 356.073181,112.104668 352.919250,116.693542 
	C351.338074,118.994095 349.367279,121.026833 347.599915,123.148026 
	C348.999054,125.331390 350.735260,124.406235 352.267822,124.312927 
	C363.836761,123.608543 375.211365,124.485703 386.081512,128.830093 
	C397.383453,133.347076 403.532135,142.452667 403.382629,153.722015 
	C403.273682,161.931473 398.031677,166.739304 392.085571,170.927124 
	C384.628448,176.179138 375.944702,178.733582 367.325226,181.350571 
	C365.612793,181.870499 363.725403,182.022659 362.017334,183.616165 
	C365.174805,187.250046 369.059753,190.086853 371.890137,193.988815 
	C380.212494,205.461929 377.832031,221.701141 359.898254,224.271866 
	C359.089081,224.387848 358.210388,224.391556 357.387329,225.976517 
	C358.373108,228.022598 359.659698,230.482178 360.761871,233.021759 
	C363.583466,239.522888 365.619293,246.144104 363.537292,253.337616 
	C360.193573,264.890503 350.868896,269.236481 339.882904,264.336975 
	C339.297211,264.075806 338.670837,263.905762 337.862305,263.622925 
	C336.232941,266.476654 334.806519,269.283722 333.099487,271.908264 
	C327.403381,280.665894 318.303711,283.978790 308.361908,281.045135 
	C303.076813,279.485596 299.184723,274.104156 298.681610,267.723053 
	C298.514038,265.597595 299.075653,263.382446 297.830566,261.068726 
	C294.192993,260.834412 290.950012,262.207581 287.799194,263.784180 
	C287.520416,266.082306 288.948975,267.435181 289.863617,268.952332 
	C295.401001,278.137054 297.812775,288.265411 298.948425,298.778534 
	C299.237915,301.458405 298.115540,303.613495 295.368835,303.876312 
	C292.242401,304.175446 290.986359,301.838440 290.771576,299.094482 
	C290.233215,292.215485 288.384735,285.689697 285.754883,279.355164 
	C284.672668,276.748474 283.568207,274.146118 281.192566,271.960815 
	C277.607178,275.098297 274.532379,279.189758 269.163940,279.149323 
	C264.095245,279.111115 260.863800,275.489929 257.025238,272.311096 
	C252.032700,278.835327 250.150055,286.202728 248.444916,293.633026 
	C247.999542,295.573730 247.597656,297.545807 247.435226,299.524811 
	C247.216446,302.190613 246.343246,304.281616 243.300049,303.912079 
	C240.464386,303.567719 239.613419,301.335999 239.710007,298.752441 
	C239.973557,291.701416 241.583725,284.912415 244.232269,278.415527 
	C246.096329,273.843048 248.392624,269.446747 250.588531,264.774719 
	C246.735245,262.462646 242.587585,261.824219 238.668274,260.676086 
	C236.369980,260.002838 235.700806,262.345734 234.902252,263.934204 
	C231.739487,270.225464 228.045288,276.120087 222.883759,281.013855 
	C218.639252,285.038177 213.738190,287.731812 207.888397,288.279663 
	C199.505096,289.064758 195.447266,286.331512 190.985916,277.217529 
	C190.572418,277.187378 190.004852,276.964172 189.640259,277.146576 
	C184.122055,279.907837 178.690720,281.212250 173.351715,276.710449 
	C167.026138,271.376740 165.112396,264.419098 166.018463,256.527802 
	C166.719193,250.424728 169.477524,244.831406 171.214279,238.975449 
	C168.627777,237.845535 166.559433,238.643692 164.457001,238.998886 
	C150.904861,241.288574 141.958878,231.398514 145.838974,218.216858 
	C149.294357,206.478088 156.378723,196.772919 163.824387,187.311386 
	C166.178253,184.320236 168.464005,181.275482 171.082596,177.862030 
	C167.984711,176.687881 165.485138,178.101273 163.096161,178.564011 
	C144.535812,182.159180 139.830505,168.717621 143.726196,155.491928 
	C146.670532,145.496033 154.248245,138.694153 162.308167,132.586319 
	C173.812988,123.867943 186.600204,117.451851 199.906281,112.016129 
	C201.415665,111.399521 202.974136,110.590126 204.714859,110.931068 
	C206.545990,111.289726 207.714615,112.483078 207.970306,114.279602 
	C208.308151,116.653419 206.749344,117.953293 204.835953,118.852928 
	C198.959457,121.615952 192.970627,124.156883 187.197754,127.119843 
	C176.790237,132.461548 166.794495,138.457855 158.706543,147.127731 
	C154.661240,151.464111 151.413986,156.207672 150.805801,162.355896 
	C150.252991,167.944336 152.858658,171.009094 158.451447,170.760468 
	C166.473618,170.403854 173.548874,167.005188 180.521683,163.409348 
	C183.334518,161.958786 186.076721,160.371384 188.887466,158.916580 
	C190.734085,157.960785 192.782928,157.239105 194.346741,159.201767 
	C196.020004,161.301804 195.703003,163.648270 193.985458,165.590637 
	C190.124161,169.957367 186.083649,174.165527 182.218369,178.528854 
	C173.256729,188.645294 164.725906,199.102295 158.027924,210.901031 
	C156.309387,213.928268 154.705887,217.107468 153.658051,220.409927 
	C151.737701,226.462280 155.496185,231.198608 161.823517,230.767136 
	C170.677124,230.163406 177.889832,225.650299 184.652740,220.379318 
	C186.952087,218.587234 189.151810,216.169601 191.960770,218.833099 
	C194.760635,221.487930 192.627411,223.989136 190.817902,226.250458 
	C184.963776,233.566315 179.701004,241.262924 176.273788,250.039261 
	C173.975677,255.924210 172.797119,261.983795 176.539932,267.751495 
	C179.604721,272.474304 182.144547,272.585205 186.125076,268.601868 
	C188.618668,266.106506 190.489670,263.153168 192.437485,260.243622 
	C193.938385,258.001617 195.986664,256.417084 198.754395,257.845795 
	C201.344391,259.182739 201.092239,261.643280 200.291870,263.986176 
	C199.470245,266.391327 199.249619,268.847931 199.258881,271.362457 
	C199.286270,278.805817 203.422440,282.034485 210.295532,279.252380 
	C220.033707,275.310547 224.345337,266.468292 228.420197,257.606689 
	C228.879517,256.607819 228.436127,255.579102 227.595795,254.923737 
	C216.649765,246.387222 209.732300,235.343887 207.551743,222.075333 
	C205.049225,220.855362 203.282578,222.090149 201.483139,221.898132 
	C199.341858,221.669586 197.533066,220.849304 197.032211,218.557312 
	C196.496567,216.106110 198.077866,214.570724 200.088242,214.097275 
	C206.123032,212.676071 208.104691,207.844788 209.513199,202.868393 
	C212.268890,193.132370 212.183197,183.148178 211.156647,173.152832 
	C210.647568,168.195969 210.118256,163.240097 209.706802,158.274765 
	C209.512817,155.934235 210.013885,153.869492 212.945541,153.621628 
	C215.569778,153.399780 216.826447,154.704254 217.453934,157.213882 
	C219.524796,165.496140 222.049393,173.572250 228.292297,179.905792 
	C232.713898,184.391586 237.772308,186.894302 244.262161,186.802872 
	C258.759399,186.598572 273.263550,186.543472 287.759277,186.777542 
	C292.420837,186.852814 294.051270,185.272217 293.648041,180.727158 
	C293.044342,173.922287 295.826416,168.014709 299.277679,162.424225 
	C300.734436,160.064438 302.291595,157.161133 305.812653,158.186829 
	C309.016602,159.120117 309.071106,162.183273 309.099121,164.822220 
	C309.194305,173.796066 311.164856,182.258591 315.143433,190.326584 
	C319.676392,199.518723 326.546295,205.839844 336.573120,208.372650 
	C339.711670,209.165482 342.070984,210.525864 341.393097,214.064056 
	C340.686951,217.750046 337.856537,217.312088 335.067047,216.645996 
	C334.148041,216.426544 333.132446,216.611420 331.951050,216.611420 
	C330.799713,220.511398 329.807922,224.363556 328.526398,228.116760 
	C325.100708,238.149429 319.282928,246.480225 310.788971,252.952164 
	C305.952271,256.637451 304.760437,266.136261 308.277802,271.016571 
	C310.462006,274.047150 316.355682,274.800781 320.692749,272.604095 
	C326.760071,269.531036 331.549805,259.423004 330.060944,252.660950 
	C329.483673,250.039230 329.205536,247.457809 332.251129,246.353073 
	C335.047302,245.338821 336.597748,247.358276 337.665588,249.547058 
	C339.168488,252.627609 341.323578,255.060196 344.113037,257.020569 
	C347.925476,259.699829 351.057617,258.717834 353.553223,255.210098 
	C356.823303,250.613678 356.797974,245.599091 354.959808,240.462784 
	C352.797760,234.421494 349.226746,229.216599 345.380737,224.157257 
	C343.742157,222.001678 340.669159,220.063187 342.398926,216.864136 
	C344.218781,213.498489 347.530701,214.864288 350.487335,215.182007 
	C353.785065,215.536331 357.142761,215.824829 360.438080,215.603012 
	C366.648865,215.184906 370.099487,208.880066 367.435913,203.227448 
	C364.269135,196.506927 358.745300,191.943680 353.018250,187.583969 
	C351.561676,186.475159 349.982910,185.528336 348.491455,184.463455 
	C346.785645,183.245514 345.379486,181.779816 346.047211,179.465485 
	C346.633881,177.432022 348.307037,176.942154 350.258881,176.562195 
	C359.561890,174.751221 368.863861,172.937744 377.673157,169.209091 
	C381.226013,167.705292 384.597809,165.937302 387.795837,163.821747 
	C397.790283,157.210175 398.136902,147.379486 388.692841,139.981689 
	C381.518402,134.361755 372.977417,132.967697 364.303131,132.392059 
	C354.464142,131.739151 344.726135,133.277435 335.000854,134.596237 
	C331.405426,135.083801 328.553802,137.143707 325.556793,138.952881 
	C320.853394,141.792099 316.105255,144.562912 311.299316,147.224091 
	C308.955963,148.521652 306.361694,149.111771 304.934174,145.998581 
	C303.642212,143.181015 305.128784,141.260895 307.630554,139.901520 
	C318.196960,134.160095 328.124146,127.453247 337.603271,120.062813 
	C341.303741,117.177704 344.807495,114.104095 347.394531,110.153526 
	C349.897888,106.330795 349.321106,104.076279 345.174011,102.226997 
	C338.186859,99.111290 330.654572,98.413391 323.190979,98.674599 
	C308.205688,99.199051 294.006805,103.293129 280.379150,109.450020 
	C278.021362,110.515251 275.484100,111.469727 273.682251,108.747200 
	C271.869324,106.007973 273.934692,104.028404 275.641418,102.219093 
	C281.935394,95.546875 288.335754,88.952850 292.556885,80.676659 
	C293.877869,78.086685 296.062775,75.254265 293.578979,72.367043 
	C291.240479,69.648750 287.839294,69.235489 284.409698,69.634941 
	C271.789154,71.104866 262.385559,78.555420 253.383469,86.599945 
	C247.285095,92.049644 241.925934,98.222351 236.951096,104.718842 
	C235.213684,106.987679 233.360504,109.911285 230.143890,107.479645 
	C226.952148,105.066818 228.596252,102.136269 230.515198,99.599686 
	C236.468246,91.730568 243.297165,84.676918 250.910187,77.877090 
M303.460205,247.976013 
	C315.225220,240.237762 321.162109,228.925018 323.494385,215.382004 
	C323.854004,213.293854 323.061218,211.930344 321.354462,210.770248 
	C312.814331,204.965424 308.197540,196.406952 304.857178,186.981049 
	C303.986084,184.522980 303.152771,182.051529 302.302124,179.586212 
	C301.821228,182.352692 301.978607,184.846802 302.510651,187.258270 
	C303.851288,193.334534 302.636444,195.022354 296.221497,195.094162 
	C286.060272,195.207916 275.897552,195.186768 265.735443,195.217667 
	C260.571075,195.233368 255.399902,195.071747 250.243729,195.282135 
	C239.188324,195.733231 229.136475,193.369293 220.405121,184.190430 
	C219.581482,194.832413 218.371689,204.165604 215.298462,213.127472 
	C215.093704,213.724533 215.232193,214.452454 215.267029,215.116562 
	C216.058197,230.192719 222.333618,242.651535 235.808060,249.459473 
	C258.022552,260.683350 280.676605,259.855896 303.460205,247.976013 
M266.525604,265.627411 
	C264.392151,267.176575 265.671997,268.383850 266.970520,269.498169 
	C268.269409,270.612823 269.660583,270.489319 270.998749,269.506317 
	C271.939575,268.815247 272.973999,268.003571 272.505707,266.719696 
	C271.834991,264.880951 270.067291,265.550476 268.689362,265.411469 
	C268.207642,265.362885 267.713226,265.440338 266.525604,265.627411 
z"/>
<path fill="#000000" opacity="1.000000" stroke="none" 
	d="
M202.775391,400.909668 
	C206.277802,409.767334 213.079529,413.954498 221.100128,412.497589 
	C229.693558,410.936615 234.524200,404.417175 234.609100,393.644745 
	C234.744339,376.483521 234.850510,359.317291 234.556946,342.160248 
	C234.468628,336.997650 236.152588,335.630310 241.126099,335.736481 
	C255.012695,336.032867 255.023254,335.835114 255.052872,349.695404 
	C255.083496,364.024994 255.309021,378.358337 255.050049,392.682831 
	C254.875214,402.353149 254.131165,411.986969 247.086395,419.795715 
	C238.992447,428.767426 228.349121,430.893066 217.140915,430.746399 
	C207.360794,430.618469 197.925339,428.549500 190.557632,421.257050 
	C184.247665,415.011505 181.892365,407.016998 181.765747,398.540436 
	C181.479614,379.383087 181.762787,360.217773 181.624756,341.057098 
	C181.596298,337.105896 183.030685,335.644623 186.892059,335.890808 
	C190.210342,336.102325 193.564346,336.082703 196.883331,335.867920 
	C200.766739,335.616669 202.117416,337.124695 202.101395,341.066254 
	C202.026230,359.559296 202.197189,378.053406 202.305695,396.546997 
	C202.313477,397.872101 202.525238,399.196014 202.775391,400.909668 
z"/>
<path fill="#000000" opacity="1.000000" stroke="none" 
	d="
M412.608948,403.397522 
	C414.225677,399.086304 414.629242,394.970917 414.629395,390.789337 
	C414.629883,374.473206 414.749603,358.155914 414.572113,341.841797 
	C414.526825,337.680939 415.547241,335.919800 420.100555,335.885254 
	C434.347870,335.777039 434.345917,335.606079 434.341858,350.030365 
	C434.337311,366.180054 434.366638,382.329803 434.321503,398.479370 
	C434.271881,416.244232 422.758759,428.784271 405.068390,430.288605 
	C396.405670,431.025299 387.837921,430.845032 379.636749,427.276611 
	C368.171967,422.288147 362.249512,413.107666 361.882996,401.145355 
	C361.266357,381.018433 361.739624,360.859344 361.629974,340.714447 
	C361.611420,337.301636 362.801880,335.834137 366.272797,336.005341 
	C369.593750,336.169098 372.937775,336.151367 376.258118,335.967834 
	C380.181854,335.750916 381.432281,337.452637 381.392181,341.297760 
	C381.234222,356.446808 381.361176,371.598633 381.315918,386.749207 
	C381.303955,390.752777 381.550415,394.698944 382.243317,398.656708 
	C383.651062,406.697357 387.872986,411.383514 395.128510,412.570679 
	C402.560394,413.786713 408.503326,410.761810 412.608948,403.397522 
z"/>
<path fill="#000000" opacity="1.000000" stroke="none" 
	d="
M308.367249,404.623779 
	C307.919098,410.015503 310.077057,412.002197 315.085449,411.739410 
	C320.893585,411.434631 326.733948,411.800232 332.553101,411.629089 
	C335.870697,411.531525 337.417084,412.523834 337.341278,416.118164 
	C337.001526,432.235382 339.447601,429.019257 324.832855,429.282379 
	C314.186188,429.474060 303.531555,429.211487 292.884125,429.381592 
	C289.211700,429.440247 287.907349,428.149384 287.918243,424.468353 
	C288.000977,396.512268 287.977966,368.555695 287.879395,340.599609 
	C287.867554,337.234741 288.902466,335.931000 292.445374,335.860565 
	C308.340881,335.544708 308.334290,335.450165 308.336975,351.249786 
	C308.339966,368.889069 308.352631,386.528320 308.367249,404.623779 
z"/>
<path fill="#000000" opacity="1.000000" stroke="none" 
	d="
M283.013397,509.202118 
	C266.057983,517.937866 247.392151,514.610718 237.651749,501.517548 
	C226.576920,486.630676 228.568390,453.748901 255.635590,448.290680 
	C272.203125,444.949738 287.208984,448.917786 294.558075,465.419678 
	C300.581970,478.945953 298.873322,498.795502 283.013397,509.202118 
M245.577820,481.355988 
	C245.841370,482.825989 246.085556,484.299774 246.371674,485.765350 
	C247.971024,493.957855 254.879547,500.196747 262.860626,500.668762 
	C271.236755,501.164154 278.364624,496.952057 281.393005,489.881042 
	C285.520294,480.244141 282.339325,469.690125 277.151672,465.455841 
	C272.183563,461.400757 266.563690,459.501160 259.994263,461.297913 
	C250.110001,464.001282 246.524841,471.254791 245.577820,481.355988 
z"/>
<path fill="#000000" opacity="1.000000" stroke="none" 
	d="
M157.327850,420.986328 
	C157.304703,429.310852 157.304703,429.316833 149.518250,429.321411 
	C137.539932,429.328430 125.560341,429.229218 113.584084,429.386932 
	C109.969810,429.434509 108.605354,428.272705 108.618309,424.541931 
	C108.715302,396.593048 108.686966,368.643433 108.594734,340.694427 
	C108.583786,337.374695 109.574280,335.980316 113.120682,335.870056 
	C128.363647,335.396271 128.356033,335.302185 128.354919,350.470062 
	C128.353607,368.437531 128.332108,386.405060 128.380722,404.372406 
	C128.398361,410.893768 129.154022,411.608246 135.497818,411.657532 
	C140.654861,411.697632 145.837906,411.990082 150.962524,411.581848 
	C156.030838,411.178162 158.122696,412.946503 157.344894,418.006256 
	C157.220001,418.818909 157.327545,419.667297 157.327850,420.986328 
z"/>
<path fill="#000000" opacity="1.000000" stroke="none" 
	d="
M317.693115,477.999939 
	C317.691833,469.510498 317.899933,461.513458 317.607574,453.534698 
	C317.443817,449.065491 319.130524,447.682129 323.417542,447.879547 
	C330.721802,448.216003 338.041168,447.832703 345.352264,448.598511 
	C354.184906,449.523682 360.024872,454.254608 361.972046,462.598175 
	C364.043457,471.474365 360.861633,478.669067 352.894836,483.155579 
	C352.188293,483.553528 351.523743,484.026001 350.190613,484.879272 
	C356.117706,494.010101 361.939972,502.979492 368.260529,512.716492 
	C362.486450,513.713623 357.456421,513.470825 352.459900,512.971313 
	C350.883606,512.813721 350.320679,511.007111 349.560425,509.738373 
	C345.456177,502.888672 341.379608,496.022339 337.272339,489.174438 
	C336.526215,487.930481 335.972656,486.162994 334.084625,486.559387 
	C332.154938,486.964508 332.357239,488.803192 332.338318,490.248169 
	C332.257660,496.405731 332.140717,502.566956 332.276093,508.721588 
	C332.352173,512.180237 330.987335,513.402466 327.558350,513.357422 
	C316.041351,513.205994 317.827698,514.072449 317.713196,503.965973 
	C317.617035,495.478302 317.693329,486.988678 317.693115,477.999939 
M333.458282,473.989075 
	C337.300812,475.588684 341.061157,474.424103 344.626373,473.229309 
	C348.960693,471.776825 350.125732,466.085052 346.814514,463.039185 
	C343.307281,459.812897 338.752014,459.557098 334.577637,460.698425 
	C330.628357,461.778229 332.652954,465.764526 332.338776,468.491699 
	C332.156036,470.077911 332.703125,471.748199 333.458282,473.989075 
z"/>
<path fill="#000000" opacity="1.000000" stroke="none" 
	d="
M117.927414,451.802429 
	C131.032059,443.573517 150.298935,446.845947 157.038620,458.199890 
	C160.421524,463.898865 160.008835,464.677856 153.602325,466.546021 
	C149.118088,467.853699 145.573486,468.905853 142.821655,463.082886 
	C140.692047,458.576660 132.904495,458.105377 128.482956,461.047699 
	C124.309151,463.825104 124.331558,468.038269 128.748871,470.530884 
	C131.039581,471.823486 133.617783,472.666229 136.143204,473.469910 
	C140.423340,474.831940 144.682846,476.186279 148.789215,478.061676 
	C156.298233,481.491028 159.763748,487.053162 159.516861,495.426270 
	C159.273132,503.692047 155.088547,508.999664 147.912964,511.832947 
	C137.956573,515.764221 128.012207,514.939026 118.560616,509.842041 
	C116.840645,508.914490 115.309021,507.498718 113.956032,506.058777 
	C111.205215,503.131226 107.512970,499.341339 109.397522,495.761292 
	C111.378944,491.997192 117.024437,492.710907 121.143074,491.817719 
	C123.240852,491.362823 123.623726,493.581696 124.385262,495.005341 
	C127.447815,500.730713 132.835434,503.165253 139.012894,501.503540 
	C141.942856,500.715424 144.111359,498.941895 144.558090,495.770020 
	C144.984726,492.740845 143.343597,490.713379 140.844559,489.287689 
	C135.149353,486.038635 128.660522,484.888794 122.662560,482.449188 
	C108.987984,476.887207 106.469597,461.560516 117.927414,451.802429 
z"/>
<path fill="#000000" opacity="1.000000" stroke="none" 
	d="
M390.470398,448.005676 
	C393.961609,448.011993 394.993805,450.407135 396.359711,452.503082 
	C399.588074,457.457001 401.908539,463.022705 406.174683,467.907745 
	C410.009247,464.112671 412.005798,459.701172 414.476410,455.660553 
	C419.499298,447.445862 423.864044,445.830658 433.387756,449.003235 
	C433.977905,450.492950 432.879974,451.489258 432.234619,452.576630 
	C430.705719,455.152679 429.364044,457.900238 427.479950,460.195282 
	C415.966064,474.220764 410.615387,489.995270 413.319275,508.194000 
	C413.892609,512.052856 412.233917,513.859192 408.257996,513.317932 
	C407.767700,513.251160 407.260193,513.309937 406.760681,513.311279 
	C399.026215,513.332031 398.292725,513.250488 399.126404,505.755737 
	C400.976562,489.122864 396.504486,474.755737 386.111420,461.821777 
	C383.064331,458.029755 380.301727,453.825531 378.516022,448.789917 
	C382.495056,447.243958 386.328339,448.310303 390.470398,448.005676 
z"/>
<path fill="#000000" opacity="1.000000" stroke="none" 
	d="
M203.059357,474.017670 
	C203.056396,485.514252 202.843872,496.519684 203.149734,507.510620 
	C203.281433,512.243225 201.573944,513.927185 197.082428,513.342834 
	C196.099228,513.214966 195.073334,513.227539 194.087021,513.344055 
	C190.029541,513.823364 188.524521,512.220215 188.591064,508.013519 
	C188.804535,494.517365 188.508682,481.012695 188.757248,467.517731 
	C188.843414,462.840363 187.479782,460.534363 182.586533,461.114624 
	C182.093735,461.173065 181.587524,461.120087 181.087555,461.115875 
	C173.235641,461.049927 171.065735,458.090912 173.034622,450.377563 
	C173.509949,448.515320 174.645645,448.003418 176.280838,448.001556 
	C188.946671,447.987122 201.612717,447.939301 214.278214,448.001251 
	C219.891464,448.028717 217.935547,452.426575 218.213455,455.368713 
	C218.492050,458.317963 218.415375,460.892731 214.124847,461.153778 
	C203.121887,461.823273 203.131592,461.982666 203.059357,474.017670 
z"/>
<path fill="#000000" opacity="1.000000" stroke="none" 
	d="
M204.868622,101.098938 
	C203.785004,100.591537 203.045395,100.201248 202.268967,99.908745 
	C199.764084,98.965111 197.419113,97.652710 198.526871,94.529427 
	C199.661789,91.329628 202.452621,91.299225 205.210678,92.226730 
	C207.238174,92.908562 209.180405,93.843933 211.052750,94.621513 
	C213.202377,93.506310 213.086212,91.450264 213.596466,89.800140 
	C215.192032,84.640121 217.620590,79.954414 221.189560,75.904167 
	C222.599915,74.303604 224.352203,73.344437 226.468369,74.734528 
	C228.707153,76.205162 228.703064,78.287186 227.710648,80.442993 
	C227.230743,81.485497 226.437988,82.384331 225.784149,83.346359 
	C220.762207,90.735443 219.142746,98.827087 220.894989,107.567436 
	C221.416763,110.170120 221.771606,112.788925 218.759033,113.916954 
	C215.355499,115.191368 214.006210,112.599403 212.891724,110.066002 
	C211.242340,106.316704 209.064789,103.057030 204.868622,101.098938 
z"/>
<path fill="#000000" opacity="1.000000" stroke="none" 
	d="
M309.320831,218.313370 
	C304.761566,220.303284 300.841766,220.240997 298.068695,216.041351 
	C295.920868,212.788620 296.926147,208.017944 299.939728,205.781754 
	C302.965607,203.536453 307.880219,203.904480 310.425537,206.567017 
	C313.329346,209.604553 313.026459,214.041397 309.320831,218.313370 
z"/>
<path fill="#000000" opacity="1.000000" stroke="none" 
	d="
M222.741577,213.663315 
	C222.299576,209.408844 223.324005,206.249893 227.264252,204.878632 
	C230.463226,203.765305 233.541611,204.129074 235.892365,206.861694 
	C238.150955,209.487213 238.684631,212.438293 237.064972,215.624420 
	C235.614655,218.477432 233.162582,219.464127 230.100235,219.467606 
	C226.295975,219.471954 223.789108,217.823059 222.741577,213.663315 
z"/>
<path fill="#000000" opacity="1.000000" stroke="none" 
	d="
M259.161591,235.067154 
	C262.268524,234.465393 262.191040,236.787781 262.876465,238.346985 
	C264.104584,241.140625 266.115295,243.309265 269.203094,243.255035 
	C272.386444,243.199127 274.840973,241.449585 275.755829,238.088379 
	C276.192444,236.484146 276.620850,234.444687 278.839203,234.975067 
	C281.431976,235.594955 280.576080,237.885818 280.217133,239.546646 
	C278.967377,245.328995 272.510986,249.124191 266.764648,247.598648 
	C260.278564,245.876724 257.021606,240.827820 259.161591,235.067154 
z"/>
</svg>