<?xml version="1.0" encoding="utf-8"?>
<svg version="1.1" id="Layer_1" x="0px" y="0px" width="100%" viewBox="0 0 320 380" enable-background="new 0 0 528 576" xmlns="http://www.w3.org/2000/svg">
  <path opacity="1.000000" stroke="none" d="M 140.126 30.11 C 148.973 22.67 158.108 16.542 169.378 14.53 C 170.188 14.385 170.985 14.085 171.797 14.049 C 178.489 13.754 185.411 13.572 189.669 19.942 C 193.756 26.055 190.886 32.108 188.017 37.837 C 186.627 40.615 184.953 43.248 183.401 45.961 C 185.362 47.765 187.037 46.612 188.697 46.207 C 203.619 42.565 218.576 41.22 233.535 45.888 C 237.93 47.259 242.351 48.726 244.421 53.653 C 246.934 59.634 244.125 64.338 241.006 68.927 C 239.443 71.227 237.494 73.26 235.746 75.381 C 237.13 77.564 238.847 76.639 240.363 76.546 C 251.804 75.842 263.053 76.719 273.803 81.063 C 284.98 85.58 291.06 94.686 290.912 105.955 C 290.804 114.164 285.62 118.972 279.74 123.16 C 272.366 128.412 263.778 130.967 255.253 133.584 C 253.56 134.103 251.694 134.256 250.005 135.849 C 253.127 139.483 256.969 142.32 259.768 146.222 C 267.999 157.695 265.644 173.934 247.908 176.505 C 247.108 176.621 246.24 176.625 245.426 178.209 C 246.4 180.256 247.673 182.715 248.763 185.255 C 251.553 191.756 253.566 198.377 251.507 205.571 C 248.201 217.123 238.979 221.469 228.115 216.57 C 227.535 216.309 226.916 216.139 226.116 215.856 C 224.505 218.71 223.095 221.517 221.407 224.141 C 215.774 232.899 206.774 236.212 196.942 233.278 C 191.716 231.719 187.867 226.337 187.369 219.956 C 187.203 217.831 187.759 215.615 186.528 213.302 C 182.93 213.067 179.723 214.441 176.607 216.017 C 176.332 218.315 177.744 219.668 178.649 221.185 C 184.125 230.37 186.51 240.498 187.633 251.011 C 187.919 253.691 186.809 255.846 184.093 256.109 C 181.001 256.408 179.759 254.071 179.547 251.327 C 179.014 244.448 177.186 237.923 174.585 231.588 C 173.515 228.981 172.422 226.379 170.074 224.194 C 166.527 227.331 163.487 231.423 158.178 231.382 C 153.165 231.344 149.969 227.723 146.173 224.544 C 141.236 231.068 139.374 238.436 137.688 245.866 C 137.248 247.807 136.85 249.779 136.689 251.758 C 136.473 254.424 135.609 256.515 132.6 256.145 C 129.796 255.801 128.954 253.569 129.049 250.985 C 129.311 243.934 130.903 237.145 133.521 230.648 C 135.366 226.076 137.636 221.68 139.808 217.008 C 135.997 214.696 131.896 214.057 128.019 212.909 C 125.746 212.236 125.085 214.579 124.295 216.167 C 121.168 222.458 117.513 228.353 112.41 233.247 C 108.211 237.271 103.365 239.965 97.58 240.513 C 89.289 241.298 85.276 238.564 80.864 229.45 C 80.456 229.42 79.894 229.197 79.533 229.38 C 74.076 232.141 68.705 233.445 63.425 228.943 C 57.169 223.61 55.277 216.652 56.173 208.761 C 56.866 202.658 59.594 197.064 61.311 191.208 C 58.754 190.078 56.708 190.877 54.629 191.232 C 41.227 193.522 32.38 183.631 36.217 170.45 C 39.634 158.711 46.64 149.006 54.004 139.544 C 56.331 136.553 58.591 133.508 61.181 130.095 C 58.118 128.921 55.645 130.334 53.283 130.797 C 34.928 134.392 30.275 120.951 34.127 107.725 C 37.039 97.729 44.533 90.927 52.503 84.819 C 63.881 76.101 76.527 69.685 89.686 64.249 C 91.179 63.632 92.72 62.823 94.441 63.164 C 96.252 63.523 97.408 64.716 97.66 66.513 C 97.995 68.886 96.454 70.186 94.561 71.086 C 88.75 73.849 82.827 76.39 77.118 79.353 C 66.825 84.695 56.941 90.691 48.942 99.361 C 44.941 103.697 41.73 108.441 41.129 114.589 C 40.582 120.177 43.159 123.242 48.69 122.993 C 56.623 122.637 63.62 119.238 70.516 115.642 C 73.298 114.192 76.01 112.604 78.79 111.15 C 80.615 110.194 82.641 109.472 84.188 111.435 C 85.843 113.535 85.529 115.881 83.831 117.824 C 80.012 122.19 76.017 126.398 72.194 130.762 C 63.331 140.878 54.895 151.335 48.271 163.134 C 46.572 166.161 44.986 169.34 43.949 172.643 C 42.05 178.695 45.767 183.432 52.025 183 C 60.78 182.396 67.913 177.883 74.601 172.612 C 76.875 170.82 79.051 168.403 81.829 171.066 C 84.598 173.721 82.488 176.222 80.698 178.483 C 74.909 185.799 69.704 193.496 66.315 202.272 C 64.042 208.157 62.876 214.217 66.578 219.984 C 69.609 224.707 72.121 224.818 76.057 220.835 C 78.523 218.339 80.374 215.386 82.3 212.477 C 83.785 210.235 85.81 208.65 88.547 210.079 C 91.109 211.416 90.859 213.876 90.067 216.219 C 89.254 218.624 89.037 221.081 89.046 223.595 C 89.073 231.039 93.164 234.267 99.961 231.485 C 109.591 227.544 113.855 218.701 117.884 209.84 C 118.339 208.841 117.9 207.812 117.069 207.157 C 106.244 198.62 99.403 187.577 97.247 174.308 C 94.772 173.088 93.025 174.323 91.245 174.131 C 89.128 173.903 87.339 173.082 86.843 170.79 C 86.314 168.339 87.878 166.804 89.866 166.33 C 95.834 164.909 97.794 160.078 99.186 155.101 C 101.912 145.365 101.827 135.381 100.812 125.386 C 100.309 120.429 99.785 115.473 99.378 110.508 C 99.186 108.167 99.682 106.102 102.581 105.855 C 105.176 105.633 106.42 106.937 107.04 109.447 C 109.088 117.729 111.585 125.805 117.758 132.139 C 122.131 136.625 127.133 139.127 133.551 139.036 C 147.889 138.832 162.232 138.776 176.567 139.011 C 181.177 139.086 182.789 137.505 182.391 132.96 C 181.795 126.155 184.546 120.248 187.959 114.657 C 189.4 112.297 190.939 109.394 194.421 110.42 C 197.59 111.353 197.643 114.416 197.671 117.055 C 197.765 126.029 199.714 134.492 203.649 142.56 C 208.132 151.752 214.925 158.073 224.841 160.606 C 227.945 161.398 230.278 162.759 229.608 166.297 C 228.91 169.983 226.111 169.545 223.352 168.879 C 222.443 168.66 221.439 168.844 220.27 168.844 C 219.132 172.744 218.151 176.597 216.884 180.35 C 213.496 190.382 207.742 198.713 199.342 205.185 C 194.559 208.87 193.381 218.369 196.859 223.25 C 199.019 226.28 204.848 227.034 209.137 224.837 C 215.137 221.764 219.874 211.656 218.401 204.894 C 217.831 202.272 217.556 199.691 220.567 198.586 C 223.332 197.572 224.866 199.591 225.922 201.78 C 227.408 204.861 229.54 207.293 232.298 209.254 C 236.069 211.933 239.166 210.951 241.633 207.443 C 244.867 202.847 244.842 197.832 243.025 192.696 C 240.887 186.654 237.355 181.45 233.552 176.39 C 231.931 174.235 228.892 172.296 230.603 169.097 C 232.403 165.731 235.678 167.097 238.602 167.415 C 241.863 167.769 245.184 168.058 248.442 167.836 C 254.585 167.418 257.997 161.113 255.363 155.46 C 252.231 148.74 246.768 144.177 241.104 139.817 C 239.664 138.708 238.103 137.761 236.628 136.696 C 234.941 135.478 233.551 134.013 234.21 131.698 C 234.791 129.665 236.445 129.175 238.376 128.795 C 247.576 126.984 256.775 125.171 265.487 121.442 C 269 119.938 272.335 118.17 275.498 116.055 C 285.381 109.443 285.724 99.612 276.385 92.215 C 269.29 86.595 260.844 85.201 252.264 84.625 C 242.534 83.972 232.904 85.51 223.287 86.829 C 219.731 87.317 216.911 89.377 213.947 91.186 C 209.296 94.025 204.6 96.796 199.848 99.457 C 197.53 100.755 194.964 101.345 193.552 98.232 C 192.274 95.414 193.745 93.494 196.219 92.134 C 206.668 86.393 216.486 79.686 225.86 72.296 C 229.52 69.411 232.985 66.337 235.543 62.386 C 238.019 58.564 237.448 56.309 233.347 54.46 C 226.437 51.344 218.989 50.646 211.607 50.908 C 196.788 51.432 182.746 55.526 169.269 61.683 C 166.938 62.748 164.428 63.703 162.646 60.98 C 160.854 58.241 162.896 56.261 164.584 54.452 C 170.808 47.78 177.138 41.186 181.312 32.91 C 182.618 30.32 184.779 27.487 182.323 24.6 C 180.011 21.882 176.646 21.468 173.255 21.868 C 160.774 23.338 151.475 30.788 142.572 38.833 C 136.541 44.283 131.241 50.455 126.321 56.952 C 124.603 59.221 122.771 62.144 119.589 59.713 C 116.433 57.3 118.058 54.369 119.956 51.833 C 125.843 43.964 132.597 36.91 140.126 30.11 M 192.094 200.209 C 203.729 192.471 209.601 181.158 211.908 167.615 C 212.263 165.527 211.479 164.163 209.791 163.003 C 201.346 157.198 196.78 148.64 193.476 139.214 C 192.615 136.756 191.791 134.284 190.949 131.819 C 190.473 134.586 190.63 137.08 191.156 139.491 C 192.481 145.567 191.28 147.255 184.936 147.327 C 174.887 147.441 164.837 147.42 154.788 147.451 C 149.68 147.466 144.566 147.305 139.467 147.515 C 128.534 147.966 118.593 145.602 109.958 136.423 C 109.144 147.065 107.947 156.399 104.908 165.36 C 104.706 165.957 104.842 166.685 104.877 167.35 C 105.659 182.426 111.866 194.884 125.191 201.692 C 147.16 212.916 169.563 212.089 192.094 200.209 M 155.569 217.86 C 153.458 219.41 154.724 220.617 156.009 221.731 C 157.294 222.846 158.669 222.722 159.992 221.739 C 160.923 221.048 161.946 220.237 161.483 218.953 C 160.819 217.114 159.071 217.783 157.709 217.644 C 157.232 217.596 156.743 217.673 155.569 217.86 Z" style="fill: rgb(140, 5, 128);"/>
  <path opacity="1.000000" stroke="none" d="M 94.594 53.332 C 93.522 52.824 92.791 52.434 92.023 52.142 C 89.545 51.198 87.226 49.886 88.322 46.762 C 89.444 43.563 92.204 43.532 94.932 44.46 C 96.937 45.142 98.858 46.077 100.709 46.854 C 102.836 45.739 102.72 43.683 103.225 42.033 C 104.803 36.873 107.205 32.187 110.734 28.137 C 112.129 26.537 113.861 25.577 115.955 26.967 C 118.168 28.438 118.164 30.52 117.183 32.676 C 116.708 33.718 115.924 34.617 115.277 35.579 C 110.311 42.968 108.71 51.06 110.443 59.8 C 110.959 62.403 111.31 65.022 108.33 66.15 C 104.965 67.424 103.63 64.832 102.528 62.299 C 100.897 58.55 98.743 55.29 94.594 53.332 Z" style="fill: rgb(12, 196, 213);"/>
  <path fill="#000000" opacity="1.000000" stroke="none" d="M 197.891 170.546 C 193.382 172.536 189.505 172.474 186.763 168.274 C 184.639 165.022 185.633 160.251 188.613 158.015 C 191.606 155.769 196.465 156.137 198.983 158.8 C 201.855 161.838 201.556 166.274 197.891 170.546 Z" style=""/>
  <path fill="#000000" opacity="1.000000" stroke="none" d="M 112.269 165.896 C 111.832 161.642 112.845 158.483 116.741 157.112 C 119.905 155.998 122.95 156.362 125.275 159.095 C 127.508 161.72 128.036 164.671 126.434 167.857 C 125 170.71 122.575 171.697 119.546 171.701 C 115.784 171.705 113.305 170.056 112.269 165.896 Z" style=""/>
  <path opacity="1.000000" stroke="none" d="M 148.286 187.3 C 151.359 186.698 151.282 189.021 151.96 190.58 C 153.175 193.374 155.162 195.542 158.216 195.488 C 161.365 195.432 163.792 193.683 164.697 190.321 C 165.129 188.717 165.552 186.678 167.746 187.208 C 170.31 187.828 169.463 190.119 169.108 191.78 C 167.873 197.562 161.488 201.357 155.805 199.832 C 149.391 198.11 146.17 193.061 148.286 187.3 Z" style="fill: rgb(195, 55, 55);"/>
  <ellipse style="stroke: rgb(224, 131, 242); paint-order: fill; stroke-width: 0px; fill: rgb(251, 212, 253); transform-box: fill-box; transform-origin: 50% 50%;" cx="91.124" cy="150.518" rx="2" ry="2" transform="matrix(1, 0.000001, -0.000001, 1, 31.817717, 11.680142)"/>
  <ellipse style="stroke: rgb(0, 0, 0); stroke-width: 0px; fill: rgb(252, 231, 253);" cx="195.708" cy="161.977" rx="1.777" ry="1.914"/>
  <path d="M 103.032 295.165 C 106.225 295.105 108.848 294.939 112.748 294.436 C 116.721 293.925 120.805 293.447 124.976 293.004 L 126.936 292.794 L 127.659 298.771 L 126.647 298.94 C 126.647 298.94 125.53 299.162 125.557 299.134 C 123.938 299.478 124.536 299.301 124.536 299.301 C 124.532 299.302 123.433 299.478 123.414 299.481 C 123.374 299.486 122.96 299.546 122.871 299.559 C 122.693 299.584 122.466 299.6 122.079 299.655 C 121.293 299.767 122.682 299.577 121.414 299.734 C 120.145 299.889 118.706 300.056 117.108 300.234 C 115.513 300.411 113.92 300.588 112.328 300.765 C 110.738 300.942 109.219 301.118 107.764 301.295 C 106.285 301.473 104.903 301.613 103.822 301.703 C 103.821 301.704 103.821 301.704 103.821 301.704 C 103.79 301.707 103.732 301.715 103.648 301.725 C 103.474 301.745 103.258 301.761 103.045 301.769 L 100.966 301.797 L 99.937 301.35 C 98.972 300.884 98.083 300.086 97.501 299.231 C 96.802 298.02 96.177 296.311 95.744 294.396 C 95.331 292.524 95.022 290.325 94.838 287.939 C 94.66 285.593 94.525 283.129 94.436 280.586 C 94.346 278.04 94.312 275.451 94.334 272.861 C 94.356 270.297 94.367 267.883 94.367 265.607 C 94.367 263.333 94.356 261.275 94.334 259.422 C 94.313 257.603 94.245 256.281 94.118 255.341 L 93.822 253.082 L 100.509 253.082 L 103.032 295.165 Z M 152.961 289.287 C 152.039 291.207 151.66 292.059 149.855 294.624 C 148.007 297.2 145.934 299.153 144.055 300.143 C 142.04 301.062 139.634 301.173 137.736 300.481 C 136.025 299.706 134.272 298.233 132.896 296.404 C 131.593 294.601 130.409 292.244 129.499 289.597 C 128.61 286.991 127.885 284.065 127.36 280.981 C 126.841 277.888 126.562 274.574 126.536 271.199 C 126.517 267.816 126.784 264.403 127.326 261.13 L 127.633 259.275 L 134.051 259.935 L 133.881 261.895 C 133.398 267.487 133.345 272.236 133.715 276.319 C 134.082 280.419 134.653 283.706 135.463 286.379 C 136.261 289.039 137.08 290.844 138.065 292.124 C 139.027 293.411 139.353 293.752 139.84 293.859 C 140.985 293.895 141.62 293.658 142.553 293.006 C 143.578 292.32 144.371 291.533 145.166 290.383 C 146.005 289.209 146.665 287.959 147.259 286.426 C 147.878 284.854 148.357 283.327 148.736 281.714 C 149.123 280.088 149.39 278.579 149.557 277.07 C 149.731 275.545 149.811 274.297 149.811 273.211 C 149.811 271.739 149.77 270.475 149.684 269.343 C 149.6 268.219 149.467 267.152 149.276 266.048 C 149.079 264.91 148.862 263.75 148.62 262.546 C 148.377 261.325 148.1 259.915 147.788 258.319 L 147.546 257.075 L 154.466 251.993 L 154.724 253.613 L 154.982 255.233 C 156 261.652 156.875 267.153 157.605 271.735 C 158.334 276.311 158.963 280.127 159.492 283.197 C 160.025 286.274 160.446 288.736 160.756 290.576 C 161.064 292.405 161.314 293.822 161.511 294.849 C 161.712 295.898 161.851 296.665 161.922 297.107 C 161.996 297.588 162.041 298.082 162.045 298.438 L 162.059 300.445 L 155.763 300.445 L 152.961 289.287 Z M 169.962 295.165 C 173.155 295.105 175.779 294.938 179.678 294.436 C 183.651 293.925 187.735 293.447 191.906 293.004 L 193.866 292.794 L 194.591 298.771 C 187.521 300.156 188.13 299.76 188.13 299.76 C 186.915 299.908 185.547 300.066 184.039 300.234 C 182.444 300.411 180.851 300.588 179.257 300.765 C 177.668 300.942 176.15 301.118 174.694 301.295 C 173.216 301.473 171.834 301.613 170.753 301.703 C 170.752 301.704 170.752 301.704 170.752 301.704 C 170.721 301.707 170.663 301.715 170.579 301.725 C 170.405 301.745 170.189 301.761 169.976 301.769 L 168.344 301.731 L 166.867 301.351 C 165.903 300.885 165.013 300.087 164.432 299.231 C 163.733 298.02 163.107 296.31 162.674 294.396 C 162.262 292.524 161.952 290.325 161.769 287.939 C 161.59 285.593 161.455 283.129 161.367 280.586 C 161.277 278.04 161.243 275.451 161.265 272.861 C 161.287 270.297 161.298 267.883 161.298 265.607 C 161.298 263.333 161.287 261.275 161.265 259.422 C 161.244 257.603 161.176 256.281 161.049 255.341 L 160.753 253.082 L 167.44 253.082 L 169.962 295.165 Z M 192.886 299.05 C 192.731 299.107 192.566 299.167 192.555 299.169 C 192.403 297.638 192.886 299.05 192.886 299.05 Z M 219.892 289.287 C 218.97 291.208 218.591 292.059 216.786 294.624 C 214.938 297.2 212.865 299.153 210.986 300.143 C 208.97 301.062 206.565 301.171 204.666 300.481 C 202.956 299.706 201.203 298.233 199.827 296.404 C 198.524 294.601 197.34 292.244 196.43 289.597 C 195.541 286.991 194.816 284.065 194.291 280.981 C 193.772 277.888 193.492 274.573 193.466 271.199 C 193.448 267.816 193.715 264.403 194.257 261.13 L 194.564 259.275 L 200.982 259.935 L 200.812 261.895 C 200.329 267.487 200.273 272.238 200.646 276.319 C 201.012 280.42 201.584 283.705 202.394 286.379 C 203.192 289.039 204.011 290.844 204.996 292.124 C 205.958 293.411 206.281 293.748 206.765 293.858 C 207.883 293.874 208.565 293.654 209.484 293.006 C 210.507 292.322 211.291 291.535 212.094 290.385 C 212.932 289.207 213.593 287.959 214.19 286.426 C 214.808 284.853 215.288 283.328 215.667 281.716 C 216.053 280.089 216.32 278.579 216.488 277.07 C 216.662 275.545 216.742 274.297 216.742 273.211 C 216.742 271.739 216.701 270.475 216.615 269.343 C 216.531 268.219 216.398 267.153 216.207 266.049 C 216.009 264.91 215.792 263.75 215.551 262.545 C 215.308 261.325 215.031 259.915 214.719 258.319 L 214.477 257.075 L 221.399 251.993 L 221.913 255.233 C 222.931 261.653 223.805 267.153 224.536 271.735 C 225.265 276.311 225.894 280.127 226.423 283.197 C 226.956 286.274 227.377 288.736 227.686 290.576 C 227.994 292.405 228.245 293.822 228.442 294.849 C 228.643 295.898 228.782 296.661 228.852 297.106 C 228.926 297.586 228.972 298.08 228.976 298.438 L 228.99 300.445 L 222.693 300.445 L 219.892 289.287 Z" transform="matrix(1, 0, 0, 0.702787, -1.611028, 86.885246)" style="fill: rgba(254, 1, 254, 0.97);"/>
  <path d="M 237.332 319.445 C 237.57 318.979 238.09 318.502 238.562 318.306 C 238.93 318.26 239.499 318.324 239.795 318.52 C 239.964 318.633 240.15 318.82 240.314 319.02 L 240.343 319.084 C 240.352 319.087 240.362 319.091 240.374 319.095 C 240.374 319.095 240.375 319.095 240.375 319.095 C 240.421 319.154 240.465 319.214 240.506 319.273 L 240.385 319.099 C 240.605 319.18 240.876 319.27 241.221 319.377 C 241.561 319.483 241.948 319.585 242.417 319.694 C 242.891 319.803 243.349 319.898 243.811 319.983 C 244.273 320.068 244.71 320.139 245.146 320.199 C 245.566 320.258 245.883 320.283 246.166 320.283 C 246.899 320.283 247.45 320.17 248.045 319.851 C 248.677 319.539 249.133 319.179 249.581 318.678 C 250.028 318.175 250.323 317.683 250.565 317.035 C 250.808 316.383 250.912 315.808 250.912 315.127 C 250.912 314.95 250.882 314.625 250.81 314.083 C 250.743 313.567 250.636 313.089 250.472 312.569 C 250.321 312.069 250.143 311.688 249.894 311.299 C 249.718 311.024 249.802 311.125 249.791 311.086 C 247.189 311.385 245.012 311.505 243.311 311.443 C 241.603 311.376 240.152 311.157 239.096 310.814 C 238.011 310.435 237.08 309.803 236.556 309.108 C 236.105 308.417 235.811 307.476 235.763 306.619 C 235.779 305.598 236.063 304.497 236.554 303.553 C 237.046 302.65 237.718 301.781 238.47 301.073 C 239.231 300.376 240.144 299.77 241.074 299.345 C 242.027 298.928 243.083 298.679 244.039 298.679 C 244.795 298.679 245.635 298.779 246.446 298.965 C 247.271 299.155 248.104 299.477 248.817 299.869 C 249.554 300.293 250.248 300.915 250.734 301.585 C 251.216 302.317 251.512 303.307 251.532 304.268 L 251.553 305.298 L 250.532 305.268 C 249.788 305.246 248.961 304.992 248.33 304.594 C 247.822 304.25 247.305 303.882 246.798 303.501 C 246.319 303.142 245.835 302.813 245.307 302.49 C 244.893 302.211 244.52 302.134 243.927 302.134 C 243.45 302.134 243.066 302.218 242.557 302.481 C 242.015 302.738 241.597 303.033 241.174 303.454 C 240.739 303.87 240.433 304.275 240.165 304.794 C 239.896 305.269 239.815 305.637 239.815 306.134 C 239.815 306.371 239.821 306.616 239.833 306.892 C 239.842 307.099 239.866 307.216 239.937 307.402 C 239.991 307.544 239.992 307.546 240.104 307.638 C 240.161 307.685 240.121 307.69 240.383 307.671 L 250.42 307.671 C 251.01 307.7 251.7 307.948 252.165 308.298 C 252.546 308.631 252.934 309.105 253.187 309.583 C 253.426 310.033 253.638 310.585 253.791 311.13 C 253.933 311.649 254.054 312.175 254.145 312.669 C 254.237 313.169 254.3 313.67 254.328 314.113 C 254.354 314.535 254.368 314.883 254.368 315.127 C 254.368 316.171 254.202 317.237 253.91 318.173 C 253.601 319.114 253.112 320.052 252.507 320.808 C 251.894 321.573 251.045 322.256 250.142 322.746 C 249.223 323.22 248.09 323.543 246.932 323.66 C 246.352 323.712 245.583 323.701 244.715 323.623 C 243.842 323.545 242.926 323.387 242.043 323.168 C 241.143 322.939 240.238 322.6 239.438 322.19 C 238.587 321.733 237.838 321.049 237.392 320.331 L 237.111 319.879 Z M 254.415 299.836 L 254.562 299.755 C 254.861 299.59 255.355 299.415 255.744 299.374 C 256.105 299.337 256.583 299.287 257.18 299.225 C 257.778 299.163 258.452 299.094 259.2 299.02 C 259.947 298.945 260.714 298.87 261.499 298.796 C 262.282 298.721 263.051 298.646 263.809 298.572 C 264.564 298.498 265.258 298.424 265.9 298.35 L 265.957 298.343 C 265.957 298.343 266.127 298.343 266.351 298.343 C 266.575 298.343 266.824 298.343 267.097 298.343 C 267.371 298.343 267.632 298.343 267.881 298.343 C 268.13 298.343 268.291 298.343 268.366 298.343 C 269.095 298.343 269.859 298.619 270.305 298.972 C 270.662 299.438 270.92 300.275 270.933 301.134 L 270.946 302.024 L 264.122 302.812 C 264.104 304.087 264.117 305.09 264.215 306.785 C 264.314 308.495 264.438 310.217 264.586 311.963 C 264.736 313.719 264.879 315.457 265.016 317.175 C 265.154 318.91 265.224 320.591 265.224 322.179 C 265.224 322.604 264.881 323.181 264.555 323.489 C 264.313 323.627 263.951 323.756 263.666 323.804 C 263.397 323.833 263.047 323.823 262.771 323.778 C 262.543 323.734 262.302 323.673 262.116 323.612 L 261.582 323.438 L 261.459 322.889 C 261.376 322.519 261.29 321.894 261.213 321.078 C 261.138 320.276 261.062 319.331 260.987 318.256 C 260.913 317.184 260.838 316.022 260.764 314.776 C 260.689 313.532 260.614 312.288 260.54 311.045 C 260.465 309.802 260.391 308.617 260.316 307.487 C 260.241 306.354 260.179 305.354 260.129 304.493 C 260.094 303.895 260.063 303.395 260.035 302.989 L 253.284 303.514 Z M 268.56 310.276 C 268.56 309.423 268.621 308.492 268.735 307.543 C 268.854 306.582 269.057 305.598 269.328 304.675 C 269.604 303.749 269.974 302.818 270.404 301.968 C 270.851 301.099 271.433 300.27 272.065 299.602 C 272.722 298.931 273.558 298.338 274.422 297.931 C 275.315 297.534 276.413 297.298 277.508 297.298 C 278.529 297.298 279.592 297.658 280.407 298.215 C 281.154 298.767 281.867 299.538 282.419 300.393 C 282.949 301.235 283.412 302.238 283.757 303.288 C 284.088 304.308 284.369 305.361 284.587 306.394 C 284.804 307.432 284.956 308.466 285.035 309.432 C 285.11 310.381 285.146 311.291 285.147 311.986 C 285.042 313.496 284.818 314.94 284.482 316.22 C 284.142 317.514 283.642 318.726 283.048 319.727 C 282.431 320.738 281.606 321.65 280.708 322.316 C 279.778 322.973 278.573 323.46 277.301 323.687 L 277.218 323.702 L 277.134 323.701 C 275.913 323.691 274.724 323.454 273.814 322.998 C 272.934 322.559 272.096 321.919 271.46 321.2 C 270.831 320.489 270.289 319.597 269.903 318.679 C 269.539 317.788 269.242 316.814 269.046 315.848 C 268.853 314.894 268.719 313.901 268.655 312.935 C 268.592 311.987 268.56 311.09 268.56 310.276 Z M 271.978 310.276 C 271.978 310.863 271.99 311.519 272.014 312.258 C 272.037 312.975 272.101 313.671 272.209 314.402 C 272.316 315.124 272.467 315.797 272.68 316.495 C 272.883 317.16 273.117 317.671 273.461 318.16 C 273.778 318.638 274.107 318.946 274.605 319.23 C 275.054 319.523 275.501 319.627 276.202 319.612 C 277.29 319.691 278.085 319.593 278.713 319.264 C 279.364 318.973 279.778 318.589 280.162 317.925 C 280.595 317.235 280.889 316.451 281.122 315.427 C 281.363 314.364 281.548 313.232 281.694 311.865 C 281.693 311.345 281.671 310.734 281.622 309.925 C 281.574 309.128 281.485 308.316 281.351 307.442 C 281.219 306.572 281.043 305.72 280.812 304.837 C 280.593 303.981 280.323 303.267 279.962 302.588 C 279.625 301.929 279.287 301.489 278.826 301.117 C 278.446 300.758 278.126 300.679 277.545 300.679 C 276.899 300.679 276.453 300.776 275.957 301.085 C 275.409 301.393 274.995 301.758 274.564 302.277 C 274.119 302.813 273.762 303.375 273.426 304.069 C 273.084 304.777 272.821 305.461 272.61 306.204 C 272.395 306.956 272.242 307.663 272.135 308.388 C 272.028 309.115 271.978 309.72 271.978 310.276 Z M 300.262 322.955 C 300.161 322.502 300.035 321.903 299.885 321.165 C 299.739 320.449 299.555 319.687 299.323 318.844 C 299.094 318.01 298.823 317.193 298.496 316.345 C 298.181 315.522 297.828 314.83 297.384 314.17 C 296.962 313.525 296.541 313.073 296.001 312.686 C 295.538 312.313 295.119 312.209 294.447 312.209 C 294.153 312.209 293.778 312.231 293.274 312.278 C 292.782 312.325 292.335 312.397 291.869 312.502 C 291.43 312.6 291.12 312.705 290.814 312.874 C 290.803 312.878 290.793 312.88 290.783 312.883 L 290.783 323.217 L 289.783 323.179 C 289.601 323.172 289.331 323.132 289.093 323.074 C 288.852 323.013 288.573 322.917 288.336 322.814 C 288.102 322.71 287.851 322.577 287.662 322.452 C 287.352 322.246 287.076 321.685 286.992 321.283 L 286.992 306.639 L 286.201 306.537 C 285.912 306.5 285.505 306.364 285.25 306.21 C 285.032 306.066 284.785 305.868 284.596 305.683 C 284.419 305.502 284.231 305.277 284.091 305.08 C 283.925 304.816 283.746 304.388 283.746 304.082 C 283.746 303.312 284.033 302.44 284.462 301.734 C 284.887 301.082 285.478 300.429 286.131 299.892 C 286.769 299.376 287.517 298.886 288.292 298.477 C 289.055 298.077 289.855 297.72 290.633 297.434 C 291.409 297.15 292.182 296.92 292.888 296.762 C 293.604 296.605 294.284 296.515 294.82 296.515 C 295.535 296.515 296.235 296.542 296.878 296.592 C 297.588 296.657 298.318 296.854 298.878 297.129 C 299.464 297.456 300.058 298.018 300.398 298.637 C 300.743 299.265 300.932 300.188 300.932 301.134 C 300.932 301.995 300.756 302.922 300.459 303.74 C 300.165 304.522 299.771 305.316 299.323 306.033 C 298.88 306.735 298.364 307.433 297.819 308.071 C 297.284 308.695 297.303 308.663 297.043 308.945 C 297.82 309.491 298.272 309.818 299.041 310.601 C 299.799 311.372 300.452 312.198 300.936 312.983 C 301.41 313.766 301.801 314.607 302.06 315.399 C 302.305 316.166 302.508 316.984 302.653 317.788 C 302.79 318.56 302.927 319.347 303.064 320.144 C 303.195 320.908 303.372 321.657 303.613 322.449 L 304.005 323.739 L 300.435 323.739 Z M 294.97 300.007 C 294.809 300.007 294.587 300.013 294.283 300.025 C 293.996 300.036 293.683 300.064 293.304 300.111 C 292.937 300.157 292.607 300.219 292.252 300.311 C 291.919 300.394 291.665 300.49 291.382 300.64 C 291.116 300.771 290.985 300.866 290.846 301.035 C 290.732 301.109 290.753 301.068 290.783 301.246 L 290.783 309.554 C 290.923 309.504 290.672 309.626 291.23 309.368 C 291.817 309.097 292.356 308.761 292.943 308.284 C 293.551 307.797 294.117 307.272 294.69 306.661 C 295.261 306.057 295.731 305.469 296.153 304.833 C 296.576 304.201 296.889 303.62 297.141 302.996 C 297.39 302.401 297.477 301.992 297.477 301.582 C 297.477 301.111 297.457 300.9 297.323 300.706 C 297.216 300.477 297.149 300.405 296.933 300.302 C 296.709 300.16 296.527 300.105 296.197 300.075 C 295.805 300.028 295.415 300.007 294.97 300.007 Z M 314.604 310.813 C 314.267 310.335 313.936 309.893 313.311 309.108 C 312.674 308.309 311.991 307.439 311.268 306.503 C 310.547 305.57 309.801 304.607 309.031 303.613 C 308.253 302.609 307.524 301.627 306.858 300.685 C 306.191 299.741 305.595 298.843 305.088 298.02 C 304.573 297.181 304.173 296.411 303.927 295.79 L 303.672 295.147 L 305.668 293.349 L 306.338 294.074 C 307.268 295.079 308.09 296.015 308.784 296.862 C 309.475 297.703 310.104 298.505 310.659 299.249 C 311.214 299.992 311.727 300.717 312.182 301.4 C 312.626 302.066 313.085 302.732 313.566 303.41 C 314.041 304.082 314.551 304.753 315.114 305.45 C 315.67 306.14 315.517 305.94 315.736 306.193 C 315.741 306.168 315.746 306.145 315.751 306.125 C 315.756 306.08 315.769 305.994 315.792 305.846 C 315.929 304.987 316.072 304.096 316.222 303.175 C 316.372 302.25 316.535 301.302 316.71 300.339 C 316.887 299.366 317.093 298.412 317.322 297.511 C 317.55 296.61 317.804 295.745 318.071 294.955 C 318.352 294.134 318.709 293.367 319.09 292.761 L 319.179 292.619 L 319.226 292.591 C 319.496 292.432 319.905 292.261 320.1 292.261 C 320.187 292.261 320.256 292.261 320.306 292.261 C 320.439 292.261 320.633 292.284 320.801 292.314 C 321.008 292.351 321.272 292.445 321.463 292.535 C 321.678 292.656 321.965 292.874 322.112 293.07 C 322.34 293.373 322.335 294.073 322.252 294.438 C 321.998 294.965 321.747 295.662 321.47 296.603 C 321.19 297.554 320.925 298.607 320.667 299.797 C 320.409 300.989 320.171 302.268 319.95 303.66 C 319.727 305.059 319.524 306.469 319.339 307.904 C 319.153 309.341 318.986 310.765 318.838 312.19 C 318.689 313.61 318.579 314.925 318.505 316.157 C 318.431 317.384 318.402 318.479 318.414 319.48 C 318.426 320.472 318.475 321.22 318.569 321.797 L 318.597 321.965 L 318.566 322.135 C 318.513 322.422 318.46 322.67 318.416 322.835 C 318.293 323.143 317.986 323.546 317.723 323.746 C 317.454 323.879 317.038 323.992 316.7 324.017 C 316.435 324.03 316.061 324.037 315.604 324.037 L 314.604 324.037 Z" transform="matrix(1.882225, 0, -0.009786, 1.254832, -361.706421, -58.543793)" style="paint-order: stroke markers; fill: rgba(254, 1, 254, 0.97);"/>
</svg>