<?xml version="1.0" encoding="utf-8"?>
<svg version="1.1" id="Layer_1" x="0px" y="0px" width="100%" viewBox="0 0 260 250" enable-background="new 0 0 528 576" xmlns="http://www.w3.org/2000/svg">
  <path opacity="1.000000" stroke="none" d="M 108.308 18.43 C 117.155 10.99 126.29 4.862 137.56 2.85 C 138.37 2.705 139.167 2.405 139.979 2.369 C 146.671 2.074 153.593 1.892 157.851 8.262 C 161.938 14.375 159.068 20.428 156.199 26.157 C 154.809 28.935 153.135 31.568 151.583 34.281 C 153.544 36.085 155.219 34.932 156.879 34.527 C 171.801 30.885 186.758 29.54 201.717 34.208 C 206.112 35.579 210.533 37.046 212.603 41.973 C 215.116 47.954 212.307 52.658 209.188 57.247 C 207.625 59.547 205.676 61.58 203.928 63.701 C 205.312 65.884 207.029 64.959 208.545 64.866 C 219.986 64.162 231.235 65.039 241.985 69.383 C 253.162 73.9 259.242 83.006 259.094 94.275 C 258.986 102.484 253.802 107.292 247.922 111.48 C 240.548 116.732 231.96 119.287 223.435 121.904 C 221.742 122.423 219.876 122.576 218.187 124.169 C 221.309 127.803 225.151 130.64 227.95 134.542 C 236.181 146.015 233.826 162.254 216.09 164.825 C 215.29 164.941 214.422 164.945 213.608 166.529 C 214.582 168.576 215.855 171.035 216.945 173.575 C 219.735 180.076 221.748 186.697 219.689 193.891 C 216.383 205.443 207.161 209.789 196.297 204.89 C 195.717 204.629 195.098 204.459 194.298 204.176 C 192.687 207.03 191.277 209.837 189.589 212.461 C 183.956 221.219 174.956 224.532 165.124 221.598 C 159.898 220.039 156.049 214.657 155.551 208.276 C 155.385 206.151 155.941 203.935 154.71 201.622 C 151.112 201.387 147.905 202.761 144.789 204.337 C 144.514 206.635 145.926 207.988 146.831 209.505 C 152.307 218.69 154.692 228.818 155.815 239.331 C 156.101 242.011 154.991 244.166 152.275 244.429 C 149.183 244.728 147.941 242.391 147.729 239.647 C 147.196 232.768 145.368 226.243 142.767 219.908 C 141.697 217.301 140.604 214.699 138.256 212.514 C 134.709 215.651 131.669 219.743 126.36 219.702 C 121.347 219.664 118.151 216.043 114.355 212.864 C 109.418 219.388 107.556 226.756 105.87 234.186 C 105.43 236.127 105.032 238.099 104.871 240.078 C 104.655 242.744 103.791 244.835 100.782 244.465 C 97.978 244.121 97.136 241.889 97.231 239.305 C 97.493 232.254 99.085 225.465 101.703 218.968 C 103.548 214.396 105.818 210 107.99 205.328 C 104.179 203.016 100.078 202.377 96.201 201.229 C 93.928 200.556 93.267 202.899 92.477 204.487 C 89.35 210.778 85.695 216.673 80.592 221.567 C 76.393 225.591 71.547 228.285 65.762 228.833 C 57.471 229.618 53.458 226.884 49.046 217.77 C 48.638 217.74 48.076 217.517 47.715 217.7 C 42.258 220.461 36.887 221.765 31.607 217.263 C 25.351 211.93 23.459 204.972 24.355 197.081 C 25.048 190.978 27.776 185.384 29.493 179.528 C 26.936 178.398 24.89 179.197 22.811 179.552 C 9.409 181.842 0.562 171.951 4.399 158.77 C 7.816 147.031 14.822 137.326 22.186 127.864 C 24.513 124.873 26.773 121.828 29.363 118.415 C 26.3 117.241 23.827 118.654 21.465 119.117 C 3.11 122.712 -1.543 109.271 2.309 96.045 C 5.221 86.049 12.715 79.247 20.685 73.139 C 32.063 64.421 44.709 58.005 57.868 52.569 C 59.361 51.952 60.902 51.143 62.623 51.484 C 64.434 51.843 65.59 53.036 65.842 54.833 C 66.177 57.206 64.636 58.506 62.743 59.406 C 56.932 62.169 51.009 64.71 45.3 67.673 C 35.007 73.015 25.123 79.011 17.124 87.681 C 13.123 92.017 9.912 96.761 9.311 102.909 C 8.764 108.497 11.341 111.562 16.872 111.313 C 24.805 110.957 31.802 107.558 38.698 103.962 C 41.48 102.512 44.192 100.924 46.972 99.47 C 48.797 98.514 50.823 97.792 52.37 99.755 C 54.025 101.855 53.711 104.201 52.013 106.144 C 48.194 110.51 44.199 114.718 40.376 119.082 C 31.513 129.198 23.077 139.655 16.453 151.454 C 14.754 154.481 13.168 157.66 12.131 160.963 C 10.232 167.015 13.949 171.752 20.207 171.32 C 28.962 170.716 36.095 166.203 42.783 160.932 C 45.057 159.14 47.233 156.723 50.011 159.386 C 52.78 162.041 50.67 164.542 48.88 166.803 C 43.091 174.119 37.886 181.816 34.497 190.592 C 32.224 196.477 31.058 202.537 34.76 208.304 C 37.791 213.027 40.303 213.138 44.239 209.155 C 46.705 206.659 48.556 203.706 50.482 200.797 C 51.967 198.555 53.992 196.97 56.729 198.399 C 59.291 199.736 59.041 202.196 58.249 204.539 C 57.436 206.944 57.219 209.401 57.228 211.915 C 57.255 219.359 61.346 222.587 68.143 219.805 C 77.773 215.864 82.037 207.021 86.066 198.16 C 86.521 197.161 86.082 196.132 85.251 195.477 C 74.426 186.94 67.585 175.897 65.429 162.628 C 62.954 161.408 61.207 162.643 59.427 162.451 C 57.31 162.223 55.521 161.402 55.025 159.11 C 54.496 156.659 56.06 155.124 58.048 154.65 C 64.016 153.229 65.976 148.398 67.368 143.421 C 70.094 133.685 70.009 123.701 68.994 113.706 C 68.491 108.749 67.967 103.793 67.56 98.828 C 67.368 96.487 67.864 94.422 70.763 94.175 C 73.358 93.953 74.602 95.257 75.222 97.767 C 77.27 106.049 79.767 114.125 85.94 120.459 C 90.313 124.945 95.315 127.447 101.733 127.356 C 116.071 127.152 130.414 127.096 144.749 127.331 C 149.359 127.406 150.971 125.825 150.573 121.28 C 149.977 114.475 152.728 108.568 156.141 102.977 C 157.582 100.617 159.121 97.714 162.603 98.74 C 165.772 99.673 165.825 102.736 165.853 105.375 C 165.947 114.349 167.896 122.812 171.831 130.88 C 176.314 140.072 183.107 146.393 193.023 148.926 C 196.127 149.718 198.46 151.079 197.79 154.617 C 197.092 158.303 194.293 157.865 191.534 157.199 C 190.625 156.98 189.621 157.164 188.452 157.164 C 187.314 161.064 186.333 164.917 185.066 168.67 C 181.678 178.702 175.924 187.033 167.524 193.505 C 162.741 197.19 161.563 206.689 165.041 211.57 C 167.201 214.6 173.03 215.354 177.319 213.157 C 183.319 210.084 188.056 199.976 186.583 193.214 C 186.013 190.592 185.738 188.011 188.749 186.906 C 191.514 185.892 193.048 187.911 194.104 190.1 C 195.59 193.181 197.722 195.613 200.48 197.574 C 204.251 200.253 207.348 199.271 209.815 195.763 C 213.049 191.167 213.024 186.152 211.207 181.016 C 209.069 174.974 205.537 169.77 201.734 164.71 C 200.113 162.555 197.074 160.616 198.785 157.417 C 200.585 154.051 203.86 155.417 206.784 155.735 C 210.045 156.089 213.366 156.378 216.624 156.156 C 222.767 155.738 226.179 149.433 223.545 143.78 C 220.413 137.06 214.95 132.497 209.286 128.137 C 207.846 127.028 206.285 126.081 204.81 125.016 C 203.123 123.798 201.733 122.333 202.392 120.018 C 202.973 117.985 204.627 117.495 206.558 117.115 C 215.758 115.304 224.957 113.491 233.669 109.762 C 237.182 108.258 240.517 106.49 243.68 104.375 C 253.563 97.763 253.906 87.932 244.567 80.535 C 237.472 74.915 229.026 73.521 220.446 72.945 C 210.716 72.292 201.086 73.83 191.469 75.149 C 187.913 75.637 185.093 77.697 182.129 79.506 C 177.478 82.345 172.782 85.116 168.03 87.777 C 165.712 89.075 163.146 89.665 161.734 86.552 C 160.456 83.734 161.927 81.814 164.401 80.454 C 174.85 74.713 184.668 68.006 194.042 60.616 C 197.702 57.731 201.167 54.657 203.725 50.706 C 206.201 46.884 205.63 44.629 201.529 42.78 C 194.619 39.664 187.171 38.966 179.789 39.228 C 164.97 39.752 150.928 43.846 137.451 50.003 C 135.12 51.068 132.61 52.023 130.828 49.3 C 129.036 46.561 131.078 44.581 132.766 42.772 C 138.99 36.1 145.32 29.506 149.494 21.23 C 150.8 18.64 152.961 15.807 150.505 12.92 C 148.193 10.202 144.828 9.788 141.437 10.188 C 128.956 11.658 119.657 19.108 110.754 27.153 C 104.723 32.603 99.423 38.775 94.503 45.272 C 92.785 47.541 90.953 50.464 87.771 48.033 C 84.615 45.62 86.24 42.689 88.138 40.153 C 94.025 32.284 100.779 25.23 108.308 18.43 M 160.276 188.529 C 171.911 180.791 177.783 169.478 180.09 155.935 C 180.445 153.847 179.661 152.483 177.973 151.323 C 169.528 145.518 164.962 136.96 161.658 127.534 C 160.797 125.076 159.973 122.604 159.131 120.139 C 158.655 122.906 158.812 125.4 159.338 127.811 C 160.663 133.887 159.462 135.575 153.118 135.647 C 143.069 135.761 133.019 135.74 122.97 135.771 C 117.862 135.786 112.748 135.625 107.649 135.835 C 96.716 136.286 86.775 133.922 78.14 124.743 C 77.326 135.385 76.129 144.719 73.09 153.68 C 72.888 154.277 73.024 155.005 73.059 155.67 C 73.841 170.746 80.048 183.204 93.373 190.012 C 115.342 201.236 137.745 200.409 160.276 188.529 M 123.751 206.18 C 121.64 207.73 122.906 208.937 124.191 210.051 C 125.476 211.166 126.851 211.042 128.174 210.059 C 129.105 209.368 130.128 208.557 129.665 207.273 C 129.001 205.434 127.253 206.103 125.891 205.964 C 125.414 205.916 124.925 205.993 123.751 206.18 Z" style="fill: rgb(140, 5, 128);"/>
  <path opacity="1.000000" stroke="none" d="M 62.776 41.652 C 61.704 41.144 60.973 40.754 60.205 40.462 C 57.727 39.518 55.408 38.206 56.504 35.082 C 57.626 31.883 60.386 31.852 63.114 32.78 C 65.119 33.462 67.04 34.397 68.891 35.174 C 71.018 34.059 70.902 32.003 71.407 30.353 C 72.985 25.193 75.387 20.507 78.916 16.457 C 80.311 14.857 82.043 13.897 84.137 15.287 C 86.35 16.758 86.346 18.84 85.365 20.996 C 84.89 22.038 84.106 22.937 83.459 23.899 C 78.493 31.288 76.892 39.38 78.625 48.12 C 79.141 50.723 79.492 53.342 76.512 54.47 C 73.147 55.744 71.812 53.152 70.71 50.619 C 69.079 46.87 66.925 43.61 62.776 41.652 Z" style="fill: rgb(12, 196, 213);"/>
  <path fill="#000000" opacity="1.000000" stroke="none" d="M 166.073 158.866 C 161.564 160.856 157.687 160.794 154.945 156.594 C 152.821 153.342 153.815 148.571 156.795 146.335 C 159.788 144.089 164.647 144.457 167.165 147.12 C 170.037 150.158 169.738 154.594 166.073 158.866 Z" style=""/>
  <path fill="#000000" opacity="1.000000" stroke="none" d="M 80.451 154.216 C 80.014 149.962 81.027 146.803 84.923 145.432 C 88.087 144.318 91.132 144.682 93.457 147.415 C 95.69 150.04 96.218 152.991 94.616 156.177 C 93.182 159.03 90.757 160.017 87.728 160.021 C 83.966 160.025 81.487 158.376 80.451 154.216 Z" style=""/>
  <path opacity="1.000000" stroke="none" d="M 116.468 175.62 C 119.541 175.018 119.464 177.341 120.142 178.9 C 121.357 181.694 123.344 183.862 126.398 183.808 C 129.547 183.752 131.974 182.003 132.879 178.641 C 133.311 177.037 133.734 174.998 135.928 175.528 C 138.492 176.148 137.645 178.439 137.29 180.1 C 136.055 185.882 129.67 189.677 123.987 188.152 C 117.573 186.43 114.352 181.381 116.468 175.62 Z" style="fill: rgb(195, 55, 55);"/>
  <ellipse style="transform-box: fill-box; transform-origin: 50% 50%; stroke: rgb(224, 131, 242); paint-order: fill; stroke-width: 0px; fill: rgb(251, 212, 253);" cx="91.124" cy="150.518" rx="2" ry="2" transform="matrix(1, 0.000001, -0.000001, 1, -0.000094, 0.000186)"/>
  <ellipse style="stroke: rgb(0, 0, 0); stroke-width: 0px; fill: rgb(252, 231, 253);" cx="163.89" cy="150.297" rx="1.777" ry="1.914"/>
</svg>